<svg aria-hidden="true" style="position: absolute; width: 0; height: 0; overflow: hidden;" version="1.1" xmlns="http://www.w3.org/2000/svg" xmlns:xlink="http://www.w3.org/1999/xlink">
<defs>
<symbol id="icon-moon" viewBox="0 0 32 32">
<path d="M16 0c0.997 0 1.973 0.091 2.921 0.266-5.883 1.21-10.305 6.417-10.305 12.657 0 7.137 5.786 12.923 12.923 12.923 3.687 0 7.015-1.545 9.37-4.022-2.33 5.957-8.127 10.176-14.908 10.176-8.837 0-16-7.163-16-16s7.163-16 16-16z"></path>
</symbol>
<symbol id="icon-sun" viewBox="0 0 32 32">
<path d="M16 25.846c0.68 0 1.231 0.551 1.231 1.231v0 3.692c0 0.68-0.551 1.231-1.231 1.231s-1.231-0.551-1.231-1.231v0-3.692c0-0.68 0.551-1.231 1.231-1.231v0zM9.038 22.962c0.223 0.223 0.36 0.53 0.36 0.87s-0.138 0.647-0.36 0.87l-2.61 2.61c-0.221 0.214-0.523 0.346-0.855 0.346-0.68 0-1.231-0.551-1.231-1.231 0-0.332 0.132-0.634 0.346-0.855l2.609-2.61c0.223-0.223 0.531-0.361 0.871-0.361s0.648 0.138 0.871 0.361v0zM24.703 22.962l2.61 2.61c0.214 0.221 0.346 0.523 0.346 0.855 0 0.68-0.551 1.231-1.231 1.231-0.332 0-0.634-0.132-0.855-0.346l-2.61-2.609c-0.223-0.223-0.361-0.531-0.361-0.871 0-0.68 0.551-1.231 1.231-1.231 0.34 0 0.647 0.138 0.87 0.36v0zM16 9.846c3.399 0 6.154 2.755 6.154 6.154s-2.755 6.154-6.154 6.154v0c-3.399 0-6.154-2.755-6.154-6.154s2.755-6.154 6.154-6.154v0zM30.769 14.769c0.68 0 1.231 0.551 1.231 1.231s-0.551 1.231-1.231 1.231v0h-3.692c-0.68 0-1.231-0.551-1.231-1.231s0.551-1.231 1.231-1.231v0h3.692zM4.923 14.769c0.68 0 1.231 0.551 1.231 1.231s-0.551 1.231-1.231 1.231v0h-3.692c-0.68 0-1.231-0.551-1.231-1.231s0.551-1.231 1.231-1.231v0h3.692zM27.313 4.687c0.223 0.223 0.36 0.53 0.36 0.87s-0.138 0.647-0.36 0.87l-2.609 2.61c-0.223 0.223-0.531 0.361-0.871 0.361-0.68 0-1.231-0.551-1.231-1.231 0-0.34 0.138-0.647 0.36-0.87l2.61-2.61c0.223-0.223 0.53-0.36 0.87-0.36s0.647 0.138 0.87 0.36v0zM6.427 4.687l2.61 2.609c0.223 0.223 0.361 0.531 0.361 0.871 0 0.68-0.551 1.231-1.231 1.231-0.339 0-0.647-0.137-0.87-0.36l-2.612-2.612c-0.214-0.221-0.346-0.523-0.346-0.855 0-0.68 0.551-1.231 1.231-1.231 0.332 0 0.634 0.132 0.855 0.346l-0-0zM16 0c0.68 0 1.231 0.551 1.231 1.231v0 3.692c0 0.68-0.551 1.231-1.231 1.231s-1.231-0.551-1.231-1.231v0-3.692c0-0.68 0.551-1.231 1.231-1.231v0z"></path>
</symbol>
<symbol id="icon-cross" viewBox="0 0 32 32">
<path d="M31.708 25.708c-0-0-0-0-0-0l-9.708-9.708 9.708-9.708c0-0 0-0 0-0 0.105-0.105 0.18-0.227 0.229-0.357 0.133-0.356 0.057-0.771-0.229-1.057l-4.586-4.586c-0.286-0.286-0.702-0.361-1.057-0.229-0.13 0.048-0.252 0.124-0.357 0.228 0 0-0 0-0 0l-9.708 9.708-9.708-9.708c-0-0-0-0-0-0-0.105-0.104-0.227-0.18-0.357-0.228-0.356-0.133-0.771-0.057-1.057 0.229l-4.586 4.586c-0.286 0.286-0.361 0.702-0.229 1.057 0.049 0.13 0.124 0.252 0.229 0.357 0 0 0 0 0 0l9.708 9.708-9.708 9.708c-0 0-0 0-0 0-0.104 0.105-0.18 0.227-0.229 0.357-0.133 0.355-0.057 0.771 0.229 1.057l4.586 4.586c0.286 0.286 0.702 0.361 1.057 0.229 0.13-0.049 0.252-0.124 0.357-0.229 0-0 0-0 0-0l9.708-9.708 9.708 9.708c0 0 0 0 0 0 0.105 0.105 0.227 0.18 0.357 0.229 0.356 0.133 0.771 0.057 1.057-0.229l4.586-4.586c0.286-0.286 0.362-0.702 0.229-1.057-0.049-0.13-0.124-0.252-0.229-0.357z"></path>
</symbol>
<symbol id="icon-check" viewBox="0 0 32 32">
<path d="M27 4l-15 15-7-7-5 5 12 12 20-20z"></path>
</symbol>
</defs>
</svg>
